<!-- Generated by IcoMoon.io -->
<svg version="1.1" xmlns="http://www.w3.org/2000/svg" width="640" height="640" viewBox="0 0 640 640">
<title></title>
<g id="icomoon-ignore">
</g>
<path d="M154.15 89.050h463.45v65.1h-463.45v-65.1zM154.15 352.55v-65.1h463.45v65.1h-463.45zM154.15 550.95v-65.1h463.45v65.1h-463.45zM54.95 468.8q20.15 0 34.875 14.725t14.725 34.875-14.725 34.875-34.875 14.725-34.875-14.725-14.725-34.875 14.725-34.875 34.875-14.725zM54.95 72q20.15 0 34.875 13.95t14.725 35.65-14.725 35.65-34.875 13.95-34.875-13.95-14.725-35.65 14.725-35.65 34.875-13.95zM54.95 270.4q20.15 0 34.875 13.95t14.725 35.65-14.725 35.65-34.875 13.95-34.875-13.95-14.725-35.65 14.725-35.65 34.875-13.95z"></path>
</svg>
